<?xml version="1.0" encoding="utf-8"?>
<!-- Generator: Adobe Illustrator 24.1.1, SVG Export Plug-In . SVG Version: 6.00 Build 0)  -->
<svg version="1.1" id="Layer_1" xmlns="http://www.w3.org/2000/svg" xmlns:xlink="http://www.w3.org/1999/xlink" x="0px" y="0px"
	 viewBox="0 0 576.26 249.42" style="enable-background:new 0 0 576.26 249.42;" xml:space="preserve">
<style type="text/css">
	.st0{fill:#010101;}
</style>
<g>
	<g>
		<path d="M218.87,78.02c0.52,1.15,1.01,2.32,1.49,3.52c0.47-1.23,0.97-2.43,1.49-3.6c0.52-1.17,1.07-2.29,1.65-3.35l15.67-30.83
			c0.28-0.53,0.57-0.94,0.86-1.24c0.29-0.29,0.62-0.51,0.98-0.65c0.36-0.14,0.78-0.22,1.24-0.25c0.46-0.03,1-0.04,1.61-0.04h10.81
			v61.03h-12.48v-35.1c0-1.7,0.08-3.55,0.25-5.53l-16.17,31.38c-0.5,0.98-1.18,1.72-2.03,2.22c-0.85,0.5-1.82,0.75-2.91,0.75h-1.93
			c-1.09,0-2.06-0.25-2.91-0.75c-0.85-0.5-1.53-1.24-2.03-2.22L198.2,61.94c0.11,0.98,0.2,1.95,0.25,2.91
			c0.06,0.96,0.08,1.85,0.08,2.66v35.1h-12.48V41.58h10.81c0.61,0,1.15,0.01,1.61,0.04c0.46,0.03,0.87,0.11,1.24,0.25
			c0.36,0.14,0.69,0.36,0.98,0.65c0.29,0.29,0.58,0.71,0.86,1.24l15.71,30.96C217.82,75.78,218.35,76.88,218.87,78.02z"/>
		<path d="M293.16,102.61c-1.23,0-2.16-0.17-2.79-0.5c-0.63-0.34-1.15-1.03-1.57-2.09l-0.92-2.39c-1.09,0.92-2.14,1.73-3.14,2.43
			c-1.01,0.7-2.05,1.29-3.12,1.78c-1.08,0.49-2.22,0.85-3.44,1.09c-1.21,0.24-2.56,0.36-4.04,0.36c-1.98,0-3.78-0.26-5.4-0.78
			c-1.62-0.52-3-1.28-4.13-2.28c-1.13-1.01-2-2.25-2.62-3.75c-0.61-1.49-0.92-3.22-0.92-5.17c0-1.54,0.39-3.11,1.17-4.73
			c0.78-1.62,2.14-3.09,4.06-4.42c1.93-1.33,4.52-2.44,7.79-3.33c3.27-0.89,7.39-1.4,12.36-1.51v-1.84c0-2.54-0.52-4.38-1.57-5.51
			c-1.05-1.13-2.53-1.7-4.46-1.7c-1.54,0-2.79,0.17-3.77,0.5c-0.98,0.34-1.85,0.71-2.62,1.13c-0.77,0.42-1.52,0.8-2.24,1.13
			c-0.73,0.34-1.59,0.5-2.6,0.5c-0.89,0-1.65-0.22-2.26-0.67c-0.61-0.45-1.12-0.98-1.51-1.59l-2.35-4.06
			c2.62-2.32,5.54-4.04,8.73-5.17c3.2-1.13,6.63-1.7,10.28-1.7c2.62,0,4.99,0.43,7.1,1.28c2.11,0.85,3.9,2.04,5.36,3.56
			c1.47,1.52,2.59,3.33,3.37,5.42c0.78,2.09,1.17,4.38,1.17,6.87v27.15H293.16z M278.25,94.7c1.68,0,3.14-0.29,4.4-0.88
			c1.26-0.59,2.53-1.54,3.81-2.85v-6.03c-2.6,0.11-4.73,0.34-6.41,0.67c-1.68,0.34-3,0.75-3.98,1.26c-0.98,0.5-1.65,1.08-2.03,1.72
			c-0.38,0.64-0.57,1.34-0.57,2.09c0,1.48,0.4,2.52,1.21,3.12C275.5,94.4,276.69,94.7,278.25,94.7z"/>
		<path d="M335.01,68.68c-0.34,0.53-0.69,0.91-1.07,1.13c-0.38,0.22-0.86,0.34-1.45,0.34c-0.61,0-1.23-0.13-1.84-0.4
			c-0.61-0.26-1.28-0.55-1.99-0.86c-0.71-0.31-1.52-0.59-2.41-0.86c-0.89-0.27-1.91-0.4-3.06-0.4c-1.65,0-2.91,0.31-3.79,0.94
			c-0.88,0.63-1.32,1.5-1.32,2.62c0,0.81,0.29,1.48,0.86,2.01c0.57,0.53,1.33,1,2.28,1.4c0.95,0.41,2.02,0.79,3.23,1.15
			c1.2,0.36,2.43,0.77,3.69,1.22c1.26,0.45,2.49,0.97,3.69,1.57c1.2,0.6,2.28,1.34,3.23,2.22c0.95,0.88,1.71,1.95,2.28,3.2
			c0.57,1.26,0.86,2.77,0.86,4.52c0,2.15-0.39,4.13-1.17,5.95c-0.78,1.82-1.95,3.38-3.5,4.69c-1.55,1.31-3.46,2.33-5.74,3.06
			c-2.28,0.73-4.89,1.09-7.85,1.09c-1.48,0-2.96-0.14-4.44-0.42c-1.48-0.28-2.91-0.66-4.29-1.13c-1.38-0.47-2.66-1.04-3.83-1.7
			c-1.17-0.66-2.18-1.36-3.02-2.12l3.02-4.78c0.33-0.56,0.76-1,1.28-1.32c0.52-0.32,1.18-0.48,1.99-0.48c0.75,0,1.43,0.17,2.03,0.5
			c0.6,0.34,1.25,0.7,1.95,1.09c0.7,0.39,1.51,0.75,2.45,1.09c0.94,0.34,2.12,0.5,3.54,0.5c1,0,1.86-0.1,2.55-0.31
			c0.7-0.21,1.26-0.5,1.68-0.86c0.42-0.36,0.73-0.77,0.92-1.22c0.2-0.45,0.29-0.91,0.29-1.38c0-0.87-0.29-1.58-0.88-2.14
			c-0.59-0.56-1.36-1.04-2.3-1.45c-0.95-0.4-2.03-0.78-3.25-1.13c-1.22-0.35-2.45-0.75-3.71-1.19c-1.26-0.45-2.49-0.98-3.71-1.61
			c-1.22-0.63-2.3-1.42-3.25-2.39c-0.95-0.96-1.72-2.14-2.3-3.54c-0.59-1.4-0.88-3.09-0.88-5.07c0-1.84,0.36-3.6,1.07-5.26
			c0.71-1.66,1.78-3.12,3.2-4.38c1.42-1.26,3.21-2.25,5.36-3c2.15-0.74,4.66-1.11,7.54-1.11c1.56,0,3.08,0.14,4.55,0.42
			c1.47,0.28,2.84,0.67,4.13,1.17s2.46,1.1,3.52,1.78c1.06,0.68,2,1.43,2.81,2.24L335.01,68.68z"/>
		<path d="M372.34,68.68c-0.34,0.53-0.69,0.91-1.07,1.13c-0.38,0.22-0.86,0.34-1.45,0.34c-0.61,0-1.23-0.13-1.84-0.4
			c-0.61-0.26-1.28-0.55-1.99-0.86c-0.71-0.31-1.52-0.59-2.41-0.86c-0.89-0.27-1.91-0.4-3.06-0.4c-1.65,0-2.91,0.31-3.79,0.94
			c-0.88,0.63-1.32,1.5-1.32,2.62c0,0.81,0.29,1.48,0.86,2.01c0.57,0.53,1.33,1,2.28,1.4c0.95,0.41,2.02,0.79,3.23,1.15
			c1.2,0.36,2.43,0.77,3.69,1.22c1.26,0.45,2.49,0.97,3.69,1.57c1.2,0.6,2.28,1.34,3.23,2.22c0.95,0.88,1.71,1.95,2.28,3.2
			c0.57,1.26,0.86,2.77,0.86,4.52c0,2.15-0.39,4.13-1.17,5.95c-0.78,1.82-1.95,3.38-3.5,4.69c-1.55,1.31-3.46,2.33-5.74,3.06
			c-2.28,0.73-4.89,1.09-7.85,1.09c-1.48,0-2.96-0.14-4.44-0.42c-1.48-0.28-2.91-0.66-4.29-1.13c-1.38-0.47-2.66-1.04-3.83-1.7
			c-1.17-0.66-2.18-1.36-3.02-2.12l3.02-4.78c0.33-0.56,0.76-1,1.28-1.32c0.52-0.32,1.18-0.48,1.99-0.48c0.75,0,1.43,0.17,2.03,0.5
			c0.6,0.34,1.25,0.7,1.95,1.09c0.7,0.39,1.51,0.75,2.45,1.09c0.94,0.34,2.12,0.5,3.54,0.5c1,0,1.86-0.1,2.55-0.31
			c0.7-0.21,1.26-0.5,1.68-0.86c0.42-0.36,0.73-0.77,0.92-1.22c0.2-0.45,0.29-0.91,0.29-1.38c0-0.87-0.29-1.58-0.88-2.14
			c-0.59-0.56-1.36-1.04-2.3-1.45c-0.95-0.4-2.03-0.78-3.25-1.13c-1.22-0.35-2.45-0.75-3.71-1.19c-1.26-0.45-2.49-0.98-3.71-1.61
			c-1.22-0.63-2.3-1.42-3.25-2.39c-0.95-0.96-1.72-2.14-2.3-3.54c-0.59-1.4-0.88-3.09-0.88-5.07c0-1.84,0.36-3.6,1.07-5.26
			c0.71-1.66,1.78-3.12,3.2-4.38c1.42-1.26,3.21-2.25,5.36-3c2.15-0.74,4.66-1.11,7.54-1.11c1.56,0,3.08,0.14,4.55,0.42
			c1.47,0.28,2.84,0.67,4.13,1.17s2.46,1.1,3.52,1.78c1.06,0.68,2,1.43,2.81,2.24L372.34,68.68z"/>
		<path d="M444.22,41.58V52.8h-17.17v49.81h-14.16V52.8h-17.18V41.58H444.22z"/>
		<path d="M459.97,58.5c3.29,0,6.3,0.52,9.01,1.55c2.71,1.03,5.03,2.51,6.98,4.44c1.94,1.93,3.45,4.27,4.52,7.02
			c1.07,2.75,1.61,5.84,1.61,9.28c0,3.46-0.54,6.58-1.61,9.36c-1.08,2.78-2.58,5.14-4.52,7.08c-1.94,1.94-4.27,3.44-6.98,4.48
			s-5.71,1.57-9.01,1.57c-3.32,0-6.35-0.52-9.07-1.57s-5.07-2.54-7.04-4.48c-1.97-1.94-3.49-4.3-4.57-7.08
			c-1.08-2.78-1.61-5.9-1.61-9.36c0-3.44,0.54-6.53,1.61-9.28c1.07-2.75,2.6-5.09,4.57-7.02c1.97-1.93,4.31-3.41,7.04-4.44
			C453.63,59.02,456.65,58.5,459.97,58.5z M459.97,93.65c2.99,0,5.19-1.05,6.6-3.16c1.41-2.11,2.12-5.31,2.12-9.61
			c0-4.3-0.71-7.5-2.12-9.59c-1.41-2.09-3.61-3.14-6.6-3.14c-3.07,0-5.32,1.05-6.74,3.14c-1.42,2.09-2.14,5.29-2.14,9.59
			c0,4.3,0.71,7.51,2.14,9.61C454.65,92.59,456.9,93.65,459.97,93.65z"/>
		<path d="M488.62,102.61V59.17h7.71c0.64,0,1.18,0.06,1.61,0.17c0.43,0.11,0.8,0.29,1.09,0.52c0.29,0.24,0.52,0.55,0.67,0.94
			c0.15,0.39,0.29,0.87,0.4,1.42l0.63,3.69c1.37-2.35,2.93-4.2,4.67-5.55c1.74-1.35,3.75-2.03,6.01-2.03c1.95,0,3.55,0.46,4.78,1.38
			l-0.84,9.55c-0.14,0.61-0.37,1.03-0.69,1.26c-0.32,0.22-0.76,0.34-1.32,0.34c-0.22,0-0.52-0.01-0.88-0.04
			c-0.36-0.03-0.74-0.06-1.13-0.1c-0.39-0.04-0.79-0.08-1.19-0.13c-0.4-0.04-0.77-0.06-1.11-0.06c-1.9,0-3.41,0.51-4.55,1.53
			c-1.13,1.02-2.09,2.42-2.87,4.21v26.35H488.62z"/>
		<path d="M536.13,103.28c-2.07,0-3.89-0.3-5.47-0.9s-2.9-1.45-3.98-2.56c-1.08-1.1-1.89-2.44-2.45-4
			c-0.56-1.56-0.84-3.31-0.84-5.24V68.14h-3.69c-0.67,0-1.24-0.22-1.72-0.65c-0.48-0.43-0.71-1.07-0.71-1.91v-5.07l6.91-1.34
			l2.56-10.6c0.34-1.34,1.28-2.01,2.85-2.01h6.79v12.69h10.77v8.88h-10.77v21.57c0,1.01,0.24,1.84,0.73,2.49
			c0.49,0.66,1.19,0.98,2.12,0.98c0.47,0,0.87-0.05,1.19-0.15c0.32-0.1,0.6-0.21,0.84-0.34c0.24-0.13,0.46-0.24,0.67-0.34
			c0.21-0.1,0.45-0.15,0.73-0.15c0.39,0,0.71,0.09,0.94,0.27c0.24,0.18,0.48,0.47,0.73,0.86l3.94,6.16
			c-1.68,1.26-3.56,2.2-5.66,2.83C540.53,102.97,538.36,103.28,536.13,103.28z"/>
		<path d="M227.08,202.27c-3.53,1.03-7.23,1.55-11.08,1.55c-5.03,0-9.6-0.79-13.72-2.37c-4.12-1.58-7.65-3.76-10.58-6.54
			c-2.93-2.78-5.19-6.07-6.79-9.89c-1.59-3.81-2.39-7.95-2.39-12.42c0-4.55,0.75-8.73,2.26-12.55c1.51-3.81,3.67-7.1,6.47-9.86
			c2.81-2.77,6.2-4.92,10.18-6.45c3.98-1.53,8.43-2.3,13.34-2.3c2.54,0,4.93,0.21,7.16,0.63c2.23,0.42,4.29,0.99,6.18,1.72
			c1.89,0.73,3.61,1.59,5.17,2.6c1.56,1.01,2.96,2.09,4.19,3.27l-4.11,6.24c-0.64,0.98-1.47,1.58-2.49,1.8
			c-1.02,0.22-2.12-0.03-3.29-0.75c-1.12-0.67-2.17-1.25-3.16-1.74c-0.99-0.49-2-0.89-3.04-1.19c-1.03-0.31-2.12-0.53-3.27-0.67
			c-1.15-0.14-2.43-0.21-3.85-0.21c-2.65,0-5.04,0.47-7.16,1.4c-2.12,0.94-3.93,2.26-5.42,3.96c-1.49,1.7-2.65,3.75-3.46,6.14
			c-0.81,2.39-1.22,5.05-1.22,7.98c0,3.24,0.45,6.12,1.34,8.63c0.89,2.51,2.16,4.64,3.79,6.37c1.63,1.73,3.59,3.05,5.87,3.96
			c2.28,0.91,4.8,1.36,7.56,1.36c1.7,0,3.25-0.17,4.63-0.5c1.38-0.34,2.73-0.78,4.04-1.34v-9.26h-6.03c-0.89,0-1.59-0.24-2.09-0.71
			c-0.5-0.47-0.75-1.07-0.75-1.8v-7.79h21.7v25.76C233.94,199.58,230.61,201.24,227.08,202.27z"/>
		<path d="M257.05,159.71v27.56c0,2.15,0.49,3.81,1.47,4.98c0.98,1.17,2.42,1.76,4.31,1.76c1.42,0,2.76-0.29,4-0.88
			c1.24-0.59,2.45-1.41,3.62-2.47v-30.96h12.99v43.44h-8.04c-1.62,0-2.68-0.73-3.18-2.18l-0.8-2.51c-0.84,0.81-1.7,1.54-2.6,2.2
			c-0.89,0.66-1.85,1.22-2.87,1.68c-1.02,0.46-2.12,0.82-3.29,1.09c-1.17,0.26-2.46,0.4-3.85,0.4c-2.37,0-4.48-0.41-6.3-1.24
			c-1.83-0.82-3.37-1.98-4.63-3.46c-1.26-1.48-2.21-3.23-2.85-5.24c-0.64-2.01-0.96-4.22-0.96-6.62v-27.56H257.05z"/>
		<path d="M321.36,203.15c-1.23,0-2.16-0.17-2.79-0.5c-0.63-0.34-1.15-1.03-1.57-2.09l-0.92-2.39c-1.09,0.92-2.14,1.73-3.14,2.43
			c-1.01,0.7-2.05,1.29-3.12,1.78c-1.08,0.49-2.22,0.85-3.44,1.09c-1.21,0.24-2.56,0.36-4.04,0.36c-1.98,0-3.79-0.26-5.4-0.77
			c-1.62-0.52-3-1.28-4.13-2.28c-1.13-1-2-2.25-2.62-3.75c-0.61-1.49-0.92-3.22-0.92-5.17c0-1.54,0.39-3.11,1.17-4.73
			c0.78-1.62,2.14-3.09,4.06-4.42c1.93-1.33,4.52-2.44,7.79-3.33c3.27-0.89,7.39-1.4,12.36-1.51v-1.84c0-2.54-0.52-4.38-1.57-5.51
			c-1.05-1.13-2.53-1.7-4.46-1.7c-1.54,0-2.79,0.17-3.77,0.5c-0.98,0.34-1.85,0.71-2.62,1.13c-0.77,0.42-1.52,0.8-2.24,1.13
			c-0.73,0.34-1.59,0.5-2.6,0.5c-0.89,0-1.65-0.22-2.26-0.67c-0.61-0.45-1.12-0.98-1.51-1.59l-2.35-4.06
			c2.62-2.32,5.54-4.04,8.73-5.17s6.63-1.7,10.28-1.7c2.62,0,4.99,0.43,7.1,1.28s3.9,2.04,5.36,3.56c1.47,1.52,2.59,3.33,3.37,5.43
			c0.78,2.09,1.17,4.38,1.17,6.87v27.14H321.36z M306.44,195.23c1.68,0,3.14-0.29,4.4-0.88c1.26-0.59,2.53-1.53,3.81-2.85v-6.03
			c-2.6,0.11-4.73,0.33-6.41,0.67c-1.68,0.33-3,0.75-3.98,1.26c-0.98,0.5-1.65,1.08-2.03,1.72c-0.38,0.64-0.57,1.34-0.57,2.09
			c0,1.48,0.4,2.52,1.22,3.12C303.69,194.93,304.88,195.23,306.44,195.23z"/>
		<path d="M335.6,203.15v-43.44h7.71c0.64,0,1.18,0.06,1.61,0.17c0.43,0.11,0.8,0.29,1.09,0.52c0.29,0.24,0.52,0.55,0.67,0.94
			c0.15,0.39,0.29,0.87,0.4,1.42l0.63,3.69c1.37-2.35,2.92-4.19,4.67-5.55c1.74-1.35,3.75-2.03,6.01-2.03
			c1.95,0,3.55,0.46,4.78,1.38l-0.84,9.55c-0.14,0.61-0.37,1.03-0.69,1.26c-0.32,0.22-0.76,0.34-1.32,0.34
			c-0.22,0-0.52-0.01-0.88-0.04c-0.36-0.03-0.74-0.06-1.13-0.1c-0.39-0.04-0.79-0.08-1.19-0.13c-0.4-0.04-0.77-0.06-1.11-0.06
			c-1.9,0-3.41,0.51-4.54,1.53c-1.13,1.02-2.09,2.42-2.87,4.21v26.35H335.6z"/>
		<path d="M398.18,203.15c-1.62,0-2.68-0.73-3.18-2.18l-1.01-3.31c-0.87,0.92-1.77,1.76-2.72,2.51c-0.95,0.75-1.98,1.4-3.08,1.95
			c-1.1,0.54-2.29,0.96-3.56,1.26c-1.27,0.29-2.65,0.44-4.13,0.44c-2.26,0-4.36-0.5-6.28-1.51c-1.93-1-3.59-2.46-4.98-4.36
			c-1.4-1.9-2.49-4.22-3.29-6.97c-0.8-2.75-1.19-5.89-1.19-9.4c0-3.24,0.45-6.25,1.34-9.03c0.89-2.78,2.16-5.18,3.79-7.21
			c1.63-2.02,3.6-3.61,5.89-4.75c2.29-1.14,4.82-1.72,7.58-1.72c2.23,0,4.13,0.33,5.68,0.98c1.55,0.66,2.95,1.51,4.21,2.58v-21.99
			h12.99v62.71H398.18z M385.03,193.85c0.95,0,1.81-0.09,2.58-0.27c0.77-0.18,1.47-0.44,2.12-0.78c0.64-0.33,1.25-0.75,1.82-1.26
			c0.57-0.5,1.14-1.09,1.7-1.76v-18.43c-1.01-1.09-2.07-1.85-3.2-2.28c-1.13-0.43-2.32-0.65-3.58-0.65c-1.2,0-2.3,0.24-3.31,0.71
			s-1.88,1.24-2.62,2.28c-0.74,1.05-1.32,2.41-1.74,4.08c-0.42,1.68-0.63,3.7-0.63,6.07c0,2.29,0.17,4.22,0.5,5.78
			c0.33,1.56,0.8,2.83,1.4,3.79c0.6,0.96,1.32,1.65,2.16,2.07C383.06,193.64,383.99,193.85,385.03,193.85z"/>
		<path d="M429.64,147.81c0,1.03-0.21,2-0.63,2.91c-0.42,0.91-0.99,1.7-1.72,2.39c-0.73,0.69-1.57,1.23-2.53,1.63
			c-0.96,0.41-1.99,0.61-3.08,0.61c-1.06,0-2.05-0.2-2.97-0.61c-0.92-0.4-1.74-0.95-2.45-1.63c-0.71-0.68-1.27-1.48-1.68-2.39
			s-0.61-1.88-0.61-2.91c0-1.06,0.2-2.05,0.61-2.97c0.4-0.92,0.96-1.73,1.68-2.43c0.71-0.7,1.53-1.24,2.45-1.63
			c0.92-0.39,1.91-0.59,2.97-0.59c1.09,0,2.12,0.2,3.08,0.59c0.96,0.39,1.81,0.94,2.53,1.63c0.73,0.7,1.3,1.51,1.72,2.43
			C429.43,145.76,429.64,146.75,429.64,147.81z M428.3,159.71v43.44h-12.99v-43.44H428.3z"/>
		<path d="M466.51,203.15c-1.23,0-2.16-0.17-2.79-0.5s-1.15-1.03-1.57-2.09l-0.92-2.39c-1.09,0.92-2.14,1.73-3.14,2.43
			c-1.01,0.7-2.05,1.29-3.12,1.78c-1.08,0.49-2.22,0.85-3.44,1.09c-1.21,0.24-2.56,0.36-4.04,0.36c-1.98,0-3.78-0.26-5.4-0.77
			c-1.62-0.52-2.99-1.28-4.13-2.28c-1.13-1-2-2.25-2.62-3.75c-0.61-1.49-0.92-3.22-0.92-5.17c0-1.54,0.39-3.11,1.17-4.73
			c0.78-1.62,2.14-3.09,4.06-4.42c1.93-1.33,4.52-2.44,7.79-3.33c3.27-0.89,7.39-1.4,12.36-1.51v-1.84c0-2.54-0.52-4.38-1.57-5.51
			c-1.05-1.13-2.53-1.7-4.46-1.7c-1.54,0-2.79,0.17-3.77,0.5c-0.98,0.34-1.85,0.71-2.62,1.13c-0.77,0.42-1.51,0.8-2.24,1.13
			c-0.73,0.34-1.59,0.5-2.6,0.5c-0.89,0-1.65-0.22-2.26-0.67c-0.61-0.45-1.12-0.98-1.51-1.59l-2.35-4.06
			c2.62-2.32,5.54-4.04,8.73-5.17s6.63-1.7,10.28-1.7c2.62,0,4.99,0.43,7.1,1.28c2.11,0.85,3.9,2.04,5.36,3.56
			c1.47,1.52,2.59,3.33,3.37,5.43c0.78,2.09,1.17,4.38,1.17,6.87v27.14H466.51z M451.59,195.23c1.68,0,3.14-0.29,4.4-0.88
			c1.26-0.59,2.53-1.53,3.81-2.85v-6.03c-2.6,0.11-4.73,0.33-6.41,0.67c-1.68,0.33-3,0.75-3.98,1.26c-0.98,0.5-1.65,1.08-2.03,1.72
			c-0.38,0.64-0.57,1.34-0.57,2.09c0,1.48,0.4,2.52,1.21,3.12C448.84,194.93,450.03,195.23,451.59,195.23z"/>
		<path d="M480.75,203.15v-43.44h8.04c1.62,0,2.68,0.73,3.18,2.18l0.75,2.51c0.84-0.78,1.7-1.51,2.6-2.18
			c0.89-0.67,1.85-1.24,2.87-1.7s2.12-0.82,3.31-1.09c1.19-0.27,2.48-0.4,3.87-0.4c2.37,0,4.48,0.41,6.3,1.24
			c1.83,0.82,3.37,1.97,4.63,3.43c1.26,1.47,2.21,3.21,2.85,5.24c0.64,2.03,0.96,4.22,0.96,6.6v27.61h-12.99v-27.61
			c0-2.12-0.49-3.78-1.47-4.96c-0.98-1.19-2.42-1.78-4.32-1.78c-1.42,0-2.76,0.31-4.02,0.92c-1.26,0.61-2.46,1.44-3.6,2.47v30.96
			H480.75z"/>
		<path d="M556.11,169.22c-0.34,0.53-0.69,0.91-1.07,1.13c-0.38,0.22-0.86,0.33-1.45,0.33c-0.61,0-1.23-0.13-1.84-0.4
			c-0.61-0.27-1.28-0.55-1.99-0.86c-0.71-0.31-1.52-0.59-2.41-0.86c-0.89-0.26-1.91-0.4-3.06-0.4c-1.65,0-2.91,0.31-3.79,0.94
			c-0.88,0.63-1.32,1.5-1.32,2.62c0,0.81,0.29,1.48,0.86,2.01c0.57,0.53,1.33,1,2.28,1.4c0.95,0.4,2.02,0.79,3.23,1.15
			c1.2,0.36,2.43,0.77,3.69,1.21c1.26,0.45,2.49,0.97,3.69,1.57c1.2,0.6,2.28,1.34,3.23,2.22c0.95,0.88,1.71,1.95,2.28,3.2
			c0.57,1.26,0.86,2.76,0.86,4.52c0,2.15-0.39,4.13-1.17,5.95s-1.95,3.38-3.5,4.69c-1.55,1.31-3.46,2.33-5.74,3.06
			c-2.28,0.73-4.9,1.09-7.85,1.09c-1.48,0-2.96-0.14-4.44-0.42c-1.48-0.28-2.91-0.66-4.29-1.13c-1.38-0.47-2.66-1.04-3.83-1.7
			c-1.17-0.66-2.18-1.36-3.02-2.12l3.02-4.78c0.34-0.56,0.76-1,1.28-1.32c0.52-0.32,1.18-0.48,1.99-0.48c0.75,0,1.43,0.17,2.03,0.5
			c0.6,0.33,1.25,0.7,1.95,1.09c0.7,0.39,1.51,0.75,2.45,1.09c0.94,0.33,2.12,0.5,3.54,0.5c1.01,0,1.86-0.11,2.56-0.31
			c0.7-0.21,1.26-0.5,1.68-0.86c0.42-0.36,0.73-0.77,0.92-1.21c0.19-0.45,0.29-0.91,0.29-1.38c0-0.87-0.29-1.58-0.88-2.14
			c-0.59-0.56-1.36-1.04-2.3-1.44c-0.95-0.4-2.03-0.78-3.25-1.13c-1.21-0.35-2.45-0.75-3.71-1.19c-1.26-0.45-2.49-0.98-3.71-1.61
			c-1.21-0.63-2.3-1.42-3.25-2.39s-1.72-2.14-2.3-3.54c-0.59-1.4-0.88-3.09-0.88-5.07c0-1.84,0.36-3.6,1.07-5.26
			c0.71-1.66,1.78-3.12,3.2-4.38c1.42-1.26,3.21-2.25,5.36-2.99c2.15-0.74,4.66-1.11,7.54-1.11c1.56,0,3.08,0.14,4.54,0.42
			c1.47,0.28,2.84,0.67,4.13,1.17c1.28,0.5,2.46,1.1,3.52,1.78c1.06,0.68,2,1.43,2.81,2.24L556.11,169.22z"/>
	</g>
	<g>
		<path class="st0" d="M143.82,26.97h-81.5v-0.2c0-3.47-2.83-6.3-6.3-6.3H36.51c-3.47,0-6.3,2.83-6.3,6.3v0.2h-9.96
			c-5.27,0-9.55,4.29-9.55,9.55v162.6c0,5.27,4.29,9.55,9.55,9.55h123.58c5.27,0,9.55-4.29,9.55-9.55V36.52
			C153.37,31.25,149.09,26.97,143.82,26.97z M36.3,26.77c0-0.11,0.09-0.2,0.2-0.2h19.51c0.11,0,0.2,0.09,0.2,0.2v37.34l-8.6-4.3
			c-0.43-0.21-0.9-0.32-1.36-0.32c-0.47,0-0.93,0.11-1.36,0.32l-8.6,4.3V26.77z M147.28,199.12c0,1.91-1.55,3.46-3.46,3.46H20.25
			c-1.91,0-3.46-1.55-3.46-3.46V36.52c0-1.91,1.55-3.46,3.46-3.46h9.96v35.98c0,1.06,0.55,2.04,1.45,2.59
			c0.9,0.56,2.02,0.61,2.97,0.13l11.64-5.82l11.64,5.82c0.43,0.22,0.9,0.32,1.36,0.32c0.56,0,1.11-0.15,1.6-0.46
			c0.9-0.56,1.45-1.54,1.45-2.59V33.07h81.5c1.91,0,3.46,1.55,3.46,3.46L147.28,199.12L147.28,199.12z"/>
		<path class="st0" d="M127.35,137.09c0-0.03,0-0.06-0.01-0.09c-0.01-0.06-0.02-0.12-0.03-0.18c-0.01-0.04-0.01-0.08-0.02-0.12
			c-0.01-0.04-0.02-0.08-0.03-0.12c-0.02-0.06-0.03-0.12-0.05-0.18c-0.01-0.03-0.02-0.05-0.03-0.08c-0.03-0.07-0.05-0.14-0.08-0.21
			c0-0.01,0-0.01-0.01-0.02l-12.75-28.68v-2.81h3.46c1.68,0,3.05-1.37,3.05-3.05s-1.36-3.05-3.05-3.05H85.08v-4.16
			c3.78-1.28,6.5-4.85,6.5-9.05c0-5.27-4.29-9.55-9.55-9.55c-5.27,0-9.55,4.29-9.55,9.55c0,4.2,2.73,7.78,6.5,9.05v4.16H46.26
			c-1.68,0-3.05,1.37-3.05,3.05s1.36,3.05,3.05,3.05h3.46v2.81L36.97,136.1c0,0.01,0,0.01-0.01,0.02c-0.03,0.07-0.06,0.14-0.08,0.21
			c-0.01,0.03-0.02,0.05-0.03,0.08c-0.02,0.06-0.03,0.12-0.05,0.18c-0.01,0.04-0.02,0.08-0.03,0.12c-0.01,0.04-0.01,0.08-0.02,0.12
			c-0.01,0.06-0.02,0.12-0.03,0.18c0,0.03,0,0.06-0.01,0.09c-0.01,0.07-0.01,0.15-0.01,0.22c0,0.01,0,0.01,0,0.02
			c0,7.06,7.2,12.8,16.06,12.8s16.06-5.74,16.06-12.8c0-0.01,0-0.01,0-0.02c0-0.07-0.01-0.15-0.01-0.22c0-0.03,0-0.06-0.01-0.09
			c-0.01-0.06-0.02-0.12-0.03-0.18c-0.01-0.04-0.01-0.08-0.02-0.12c-0.01-0.04-0.02-0.08-0.03-0.12c-0.02-0.06-0.03-0.12-0.05-0.18
			c-0.01-0.03-0.02-0.05-0.03-0.08c-0.03-0.07-0.05-0.14-0.08-0.21c0-0.01,0-0.01-0.01-0.02l-12.75-28.68v-2.81h23.17v26.92
			c-3.78,1.28-6.5,4.85-6.5,9.05v22.97h-6.71c-1.68,0-3.05,1.37-3.05,3.05c0,1.68,1.36,3.05,3.05,3.05h32.52
			c1.68,0,3.05-1.37,3.05-3.05c0-1.68-1.36-3.05-3.05-3.05h-6.71v-22.97c0-4.2-2.73-7.78-6.5-9.05v-26.92h23.17v2.81L95.51,136.1
			c0,0.01,0,0.01-0.01,0.02c-0.03,0.07-0.06,0.14-0.08,0.21c-0.01,0.03-0.02,0.05-0.03,0.08c-0.02,0.06-0.03,0.12-0.05,0.18
			c-0.01,0.04-0.02,0.08-0.03,0.12c-0.01,0.04-0.01,0.08-0.02,0.12c-0.01,0.06-0.02,0.12-0.03,0.18c0,0.03,0,0.06-0.01,0.09
			c-0.01,0.07-0.01,0.15-0.01,0.22c0,0.01,0,0.01,0,0.02c0,7.06,7.2,12.8,16.06,12.8s16.06-5.74,16.06-12.8c0-0.01,0-0.01,0-0.02
			C127.36,137.24,127.35,137.17,127.35,137.09z M82.03,81.85c1.91,0,3.46,1.55,3.46,3.46c0,1.91-1.55,3.46-3.46,3.46
			c-1.91,0-3.46-1.55-3.46-3.46C78.58,83.4,80.13,81.85,82.03,81.85z M52.77,115.57l8.32,18.71H44.45L52.77,115.57z M52.77,144.04
			c-3.78,0-7.15-1.51-8.83-3.66H61.6C59.92,142.53,56.55,144.04,52.77,144.04z M85.49,163.55h-6.91v-22.97
			c0-1.91,1.55-3.46,3.46-3.46c1.91,0,3.46,1.55,3.46,3.46V163.55z M111.3,115.57l8.32,18.71h-16.63L111.3,115.57z M111.3,144.04
			c-3.78,0-7.15-1.51-8.83-3.66h17.66C118.45,142.53,115.08,144.04,111.3,144.04z"/>
	</g>
</g>
</svg>
