<?xml version="1.0" encoding="utf-8"?>
<!-- Generator: Adobe Illustrator 24.1.1, SVG Export Plug-In . SVG Version: 6.00 Build 0)  -->
<svg version="1.1" id="Layer_1" xmlns="http://www.w3.org/2000/svg" xmlns:xlink="http://www.w3.org/1999/xlink" x="0px" y="0px"
	 viewBox="0 0 576.3 249.4" style="enable-background:new 0 0 576.3 249.4;" xml:space="preserve">
<style type="text/css">
	.st0{fill:#FFFFFF;}
</style>
<g>
	<g>
		<path class="st0" d="M218.9,78c0.5,1.2,1,2.3,1.5,3.5c0.5-1.2,1-2.4,1.5-3.6s1.1-2.3,1.6-3.3l15.7-30.8c0.3-0.5,0.6-0.9,0.9-1.2
			c0.3-0.3,0.6-0.5,1-0.7c0.4-0.1,0.8-0.2,1.2-0.3s1,0,1.6,0h10.8v61h-12.5V67.5c0-1.7,0.1-3.5,0.3-5.5l-16.2,31.4
			c-0.5,1-1.2,1.7-2,2.2s-1.8,0.8-2.9,0.8h-1.9c-1.1,0-2.1-0.3-2.9-0.8s-1.5-1.2-2-2.2l-16.3-31.4c0.1,1,0.2,2,0.3,2.9
			c0.1,1,0.1,1.8,0.1,2.7v35.1h-12.5v-61h10.8c0.6,0,1.1,0,1.6,0c0.5,0,0.9,0.1,1.2,0.3c0.4,0.1,0.7,0.4,1,0.7s0.6,0.7,0.9,1.2
			l15.7,31C217.8,75.8,218.4,76.9,218.9,78z"/>
		<path class="st0" d="M293.2,102.6c-1.2,0-2.2-0.2-2.8-0.5c-0.6-0.3-1.1-1-1.6-2.1l-0.9-2.4c-1.1,0.9-2.1,1.7-3.1,2.4
			c-1,0.7-2,1.3-3.1,1.8c-1.1,0.5-2.2,0.8-3.4,1.1c-1.2,0.2-2.6,0.4-4,0.4c-2,0-3.8-0.3-5.4-0.8s-3-1.3-4.1-2.3
			c-1.1-1-2-2.3-2.6-3.8c-0.6-1.5-0.9-3.2-0.9-5.2c0-1.5,0.4-3.1,1.2-4.7s2.1-3.1,4.1-4.4c1.9-1.3,4.5-2.4,7.8-3.3
			c3.3-0.9,7.4-1.4,12.4-1.5v-1.8c0-2.5-0.5-4.4-1.6-5.5c-1-1.1-2.5-1.7-4.5-1.7c-1.5,0-2.8,0.2-3.8,0.5c-1,0.3-1.9,0.7-2.6,1.1
			s-1.5,0.8-2.2,1.1c-0.7,0.3-1.6,0.5-2.6,0.5c-0.9,0-1.6-0.2-2.3-0.7c-0.6-0.4-1.1-1-1.5-1.6l-2.4-4.1c2.6-2.3,5.5-4,8.7-5.2
			c3.2-1.1,6.6-1.7,10.3-1.7c2.6,0,5,0.4,7.1,1.3c2.1,0.8,3.9,2,5.4,3.6c1.5,1.5,2.6,3.3,3.4,5.4s1.2,4.4,1.2,6.9v27.2L293.2,102.6
			L293.2,102.6z M278.3,94.7c1.7,0,3.1-0.3,4.4-0.9c1.3-0.6,2.5-1.5,3.8-2.8v-6c-2.6,0.1-4.7,0.3-6.4,0.7c-1.7,0.3-3,0.8-4,1.3
			c-1,0.5-1.6,1.1-2,1.7s-0.6,1.3-0.6,2.1c0,1.5,0.4,2.5,1.2,3.1C275.5,94.4,276.7,94.7,278.3,94.7z"/>
		<path class="st0" d="M335,68.7c-0.3,0.5-0.7,0.9-1.1,1.1c-0.4,0.2-0.9,0.3-1.5,0.3c-0.6,0-1.2-0.1-1.8-0.4c-0.6-0.3-1.3-0.6-2-0.9
			s-1.5-0.6-2.4-0.9c-0.9-0.3-1.9-0.4-3.1-0.4c-1.6,0-2.9,0.3-3.8,0.9c-0.9,0.6-1.3,1.5-1.3,2.6c0,0.8,0.3,1.5,0.9,2
			c0.6,0.5,1.3,1,2.3,1.4c1,0.4,2,0.8,3.2,1.2c1.2,0.4,2.4,0.8,3.7,1.2c1.3,0.4,2.5,1,3.7,1.6s2.3,1.3,3.2,2.2
			c1,0.9,1.7,1.9,2.3,3.2c0.6,1.3,0.9,2.8,0.9,4.5c0,2.2-0.4,4.1-1.2,5.9s-2,3.4-3.5,4.7c-1.5,1.3-3.5,2.3-5.7,3.1
			c-2.3,0.7-4.9,1.1-7.9,1.1c-1.5,0-3-0.1-4.4-0.4s-2.9-0.7-4.3-1.1c-1.4-0.5-2.7-1-3.8-1.7c-1.2-0.7-2.2-1.4-3-2.1l3-4.8
			c0.3-0.6,0.8-1,1.3-1.3s1.2-0.5,2-0.5c0.8,0,1.4,0.2,2,0.5c0.6,0.3,1.3,0.7,2,1.1s1.5,0.8,2.5,1.1s2.1,0.5,3.5,0.5
			c1,0,1.9-0.1,2.5-0.3c0.7-0.2,1.3-0.5,1.7-0.9c0.4-0.4,0.7-0.8,0.9-1.2c0.2-0.4,0.3-0.9,0.3-1.4c0-0.9-0.3-1.6-0.9-2.1
			s-1.4-1-2.3-1.4c-1-0.4-2-0.8-3.3-1.1s-2.5-0.8-3.7-1.2c-1.3-0.4-2.5-1-3.7-1.6s-2.3-1.4-3.3-2.4c-1-1-1.7-2.1-2.3-3.5
			c-0.6-1.4-0.9-3.1-0.9-5.1c0-1.8,0.4-3.6,1.1-5.3c0.7-1.7,1.8-3.1,3.2-4.4c1.4-1.3,3.2-2.3,5.4-3c2.1-0.7,4.7-1.1,7.5-1.1
			c1.6,0,3.1,0.1,4.5,0.4s2.8,0.7,4.1,1.2s2.5,1.1,3.5,1.8s2,1.4,2.8,2.2L335,68.7z"/>
		<path class="st0" d="M372.3,68.7c-0.3,0.5-0.7,0.9-1.1,1.1c-0.4,0.2-0.9,0.3-1.5,0.3c-0.6,0-1.2-0.1-1.8-0.4
			c-0.6-0.3-1.3-0.6-2-0.9s-1.5-0.6-2.4-0.9c-0.9-0.3-1.9-0.4-3.1-0.4c-1.6,0-2.9,0.3-3.8,0.9c-0.9,0.6-1.3,1.5-1.3,2.6
			c0,0.8,0.3,1.5,0.9,2c0.6,0.5,1.3,1,2.3,1.4c1,0.4,2,0.8,3.2,1.2c1.2,0.4,2.4,0.8,3.7,1.2c1.3,0.4,2.5,1,3.7,1.6s2.3,1.3,3.2,2.2
			c1,0.9,1.7,1.9,2.3,3.2c0.6,1.3,0.9,2.8,0.9,4.5c0,2.2-0.4,4.1-1.2,5.9s-2,3.4-3.5,4.7c-1.5,1.3-3.5,2.3-5.7,3.1
			c-2.3,0.7-4.9,1.1-7.9,1.1c-1.5,0-3-0.1-4.4-0.4s-2.9-0.7-4.3-1.1c-1.4-0.5-2.7-1-3.8-1.7c-1.2-0.7-2.2-1.4-3-2.1l3-4.8
			c0.3-0.6,0.8-1,1.3-1.3s1.2-0.5,2-0.5c0.8,0,1.4,0.2,2,0.5c0.6,0.3,1.3,0.7,2,1.1s1.5,0.8,2.5,1.1s2.1,0.5,3.5,0.5
			c1,0,1.9-0.1,2.5-0.3c0.7-0.2,1.3-0.5,1.7-0.9c0.4-0.4,0.7-0.8,0.9-1.2c0.2-0.4,0.3-0.9,0.3-1.4c0-0.9-0.3-1.6-0.9-2.1
			s-1.4-1-2.3-1.4c-1-0.4-2-0.8-3.3-1.1s-2.5-0.8-3.7-1.2c-1.3-0.4-2.5-1-3.7-1.6s-2.3-1.4-3.3-2.4c-1-1-1.7-2.1-2.3-3.5
			c-0.6-1.4-0.9-3.1-0.9-5.1c0-1.8,0.4-3.6,1.1-5.3c0.7-1.7,1.8-3.1,3.2-4.4c1.4-1.3,3.2-2.3,5.4-3c2.1-0.7,4.7-1.1,7.5-1.1
			c1.6,0,3.1,0.1,4.5,0.4s2.8,0.7,4.1,1.2s2.5,1.1,3.5,1.8s2,1.4,2.8,2.2L372.3,68.7z"/>
		<path class="st0" d="M444.2,41.6v11.2H427v49.8h-14.2V52.8h-17.2V41.6H444.2z"/>
		<path class="st0" d="M460,58.5c3.3,0,6.3,0.5,9,1.5c2.7,1,5,2.5,7,4.4c1.9,1.9,3.5,4.3,4.5,7c1.1,2.8,1.6,5.8,1.6,9.3
			c0,3.5-0.5,6.6-1.6,9.4c-1.1,2.8-2.6,5.1-4.5,7.1s-4.3,3.4-7,4.5s-5.7,1.6-9,1.6c-3.3,0-6.4-0.5-9.1-1.6s-5.1-2.5-7-4.5
			s-3.5-4.3-4.6-7.1c-1.1-2.8-1.6-5.9-1.6-9.4c0-3.4,0.5-6.5,1.6-9.3c1.1-2.8,2.6-5.1,4.6-7s4.3-3.4,7-4.4S456.6,58.5,460,58.5z
			 M460,93.7c3,0,5.2-1.1,6.6-3.2s2.1-5.3,2.1-9.6s-0.7-7.5-2.1-9.6c-1.4-2.1-3.6-3.1-6.6-3.1c-3.1,0-5.3,1.1-6.7,3.1
			c-1.4,2.1-2.1,5.3-2.1,9.6c0,4.3,0.7,7.5,2.1,9.6C454.6,92.6,456.9,93.7,460,93.7z"/>
		<path class="st0" d="M488.6,102.6V59.2h7.7c0.6,0,1.2,0.1,1.6,0.2c0.4,0.1,0.8,0.3,1.1,0.5c0.3,0.2,0.5,0.5,0.7,0.9
			c0.1,0.4,0.3,0.9,0.4,1.4l0.6,3.7c1.4-2.3,2.9-4.2,4.7-5.5c1.7-1.3,3.8-2,6-2c1.9,0,3.6,0.5,4.8,1.4l-0.8,9.6
			c-0.1,0.6-0.4,1-0.7,1.3c-0.3,0.2-0.8,0.3-1.3,0.3c-0.2,0-0.5,0-0.9,0s-0.7-0.1-1.1-0.1s-0.8-0.1-1.2-0.1c-0.4,0-0.8-0.1-1.1-0.1
			c-1.9,0-3.4,0.5-4.5,1.5c-1.1,1-2.1,2.4-2.9,4.2v26.3L488.6,102.6L488.6,102.6z"/>
		<path class="st0" d="M536.1,103.3c-2.1,0-3.9-0.3-5.5-0.9s-2.9-1.4-4-2.6c-1.1-1.1-1.9-2.4-2.5-4s-0.8-3.3-0.8-5.2V68.1h-3.7
			c-0.7,0-1.2-0.2-1.7-0.7s-0.7-1.1-0.7-1.9v-5.1l6.9-1.3l2.6-10.6c0.3-1.3,1.3-2,2.8-2h6.8v12.7h10.8v8.9h-10.8v21.6
			c0,1,0.2,1.8,0.7,2.5c0.5,0.7,1.2,1,2.1,1c0.5,0,0.9-0.1,1.2-0.2s0.6-0.2,0.8-0.3c0.2-0.1,0.5-0.2,0.7-0.3
			c0.2-0.1,0.5-0.2,0.7-0.2c0.4,0,0.7,0.1,0.9,0.3c0.2,0.2,0.5,0.5,0.7,0.9l3.9,6.2c-1.7,1.3-3.6,2.2-5.7,2.8
			C540.5,103,538.4,103.3,536.1,103.3z"/>
		<path class="st0" d="M227.1,202.3c-3.5,1-7.2,1.6-11.1,1.6c-5,0-9.6-0.8-13.7-2.4s-7.6-3.8-10.6-6.5c-2.9-2.8-5.2-6.1-6.8-9.9
			c-1.6-3.8-2.4-7.9-2.4-12.4c0-4.6,0.8-8.7,2.3-12.6c1.5-3.8,3.7-7.1,6.5-9.9c2.8-2.8,6.2-4.9,10.2-6.4s8.4-2.3,13.3-2.3
			c2.5,0,4.9,0.2,7.2,0.6c2.2,0.4,4.3,1,6.2,1.7s3.6,1.6,5.2,2.6c1.6,1,3,2.1,4.2,3.3l-4.1,6.2c-0.6,1-1.5,1.6-2.5,1.8
			s-2.1,0-3.3-0.8c-1.1-0.7-2.2-1.3-3.2-1.7s-2-0.9-3-1.2c-1-0.3-2.1-0.5-3.3-0.7c-1.1-0.1-2.4-0.2-3.9-0.2c-2.6,0-5,0.5-7.2,1.4
			c-2.1,0.9-3.9,2.3-5.4,4c-1.5,1.7-2.6,3.8-3.5,6.1c-0.8,2.4-1.2,5.1-1.2,8c0,3.2,0.4,6.1,1.3,8.6c0.9,2.5,2.2,4.6,3.8,6.4
			c1.6,1.7,3.6,3.1,5.9,4s4.8,1.4,7.6,1.4c1.7,0,3.3-0.2,4.6-0.5c1.4-0.3,2.7-0.8,4-1.3v-9.3h-6c-0.9,0-1.6-0.2-2.1-0.7
			s-0.8-1.1-0.8-1.8v-7.8h21.7v25.8C233.9,199.6,230.6,201.2,227.1,202.3z"/>
		<path class="st0" d="M257,159.7v27.6c0,2.1,0.5,3.8,1.5,5s2.4,1.8,4.3,1.8c1.4,0,2.8-0.3,4-0.9c1.2-0.6,2.5-1.4,3.6-2.5v-31h13
			v43.4h-8c-1.6,0-2.7-0.7-3.2-2.2l-0.8-2.5c-0.8,0.8-1.7,1.5-2.6,2.2c-0.9,0.7-1.9,1.2-2.9,1.7c-1,0.5-2.1,0.8-3.3,1.1
			c-1.2,0.3-2.5,0.4-3.9,0.4c-2.4,0-4.5-0.4-6.3-1.2c-1.8-0.8-3.4-2-4.6-3.5c-1.3-1.5-2.2-3.2-2.9-5.2c-0.6-2-1-4.2-1-6.6v-27.6
			L257,159.7L257,159.7z"/>
		<path class="st0" d="M321.4,203.2c-1.2,0-2.2-0.2-2.8-0.5c-0.6-0.3-1.1-1-1.6-2.1l-0.9-2.4c-1.1,0.9-2.1,1.7-3.1,2.4
			c-1,0.7-2,1.3-3.1,1.8c-1.1,0.5-2.2,0.9-3.4,1.1c-1.2,0.2-2.6,0.4-4,0.4c-2,0-3.8-0.3-5.4-0.8c-1.6-0.5-3-1.3-4.1-2.3
			s-2-2.3-2.6-3.8c-0.6-1.5-0.9-3.2-0.9-5.2c0-1.5,0.4-3.1,1.2-4.7s2.1-3.1,4.1-4.4c1.9-1.3,4.5-2.4,7.8-3.3
			c3.3-0.9,7.4-1.4,12.4-1.5V176c0-2.5-0.5-4.4-1.6-5.5c-1-1.1-2.5-1.7-4.5-1.7c-1.5,0-2.8,0.2-3.8,0.5c-1,0.3-1.9,0.7-2.6,1.1
			s-1.5,0.8-2.2,1.1c-0.7,0.3-1.6,0.5-2.6,0.5c-0.9,0-1.6-0.2-2.3-0.7c-0.6-0.4-1.1-1-1.5-1.6l-2.4-4.1c2.6-2.3,5.5-4,8.7-5.2
			s6.6-1.7,10.3-1.7c2.6,0,5,0.4,7.1,1.3s3.9,2,5.4,3.6c1.5,1.5,2.6,3.3,3.4,5.4c0.8,2.1,1.2,4.4,1.2,6.9v27.1L321.4,203.2
			L321.4,203.2z M306.4,195.2c1.7,0,3.1-0.3,4.4-0.9c1.3-0.6,2.5-1.5,3.8-2.9v-6c-2.6,0.1-4.7,0.3-6.4,0.7c-1.7,0.3-3,0.8-4,1.3
			c-1,0.5-1.6,1.1-2,1.7s-0.6,1.3-0.6,2.1c0,1.5,0.4,2.5,1.2,3.1C303.7,194.9,304.9,195.2,306.4,195.2z"/>
		<path class="st0" d="M335.6,203.2v-43.4h7.7c0.6,0,1.2,0.1,1.6,0.2s0.8,0.3,1.1,0.5c0.3,0.2,0.5,0.6,0.7,0.9
			c0.1,0.4,0.3,0.9,0.4,1.4l0.6,3.7c1.4-2.4,2.9-4.2,4.7-5.6c1.7-1.4,3.8-2,6-2c2,0,3.5,0.5,4.8,1.4l-0.8,9.6
			c-0.1,0.6-0.4,1-0.7,1.3c-0.3,0.2-0.8,0.3-1.3,0.3c-0.2,0-0.5,0-0.9,0c-0.4,0-0.7-0.1-1.1-0.1c-0.4,0-0.8-0.1-1.2-0.1
			c-0.4,0-0.8-0.1-1.1-0.1c-1.9,0-3.4,0.5-4.5,1.5s-2.1,2.4-2.9,4.2v26.4L335.6,203.2L335.6,203.2z"/>
		<path class="st0" d="M398.2,203.2c-1.6,0-2.7-0.7-3.2-2.2l-1-3.3c-0.9,0.9-1.8,1.8-2.7,2.5s-2,1.4-3.1,1.9c-1.1,0.5-2.3,1-3.6,1.3
			c-1.3,0.3-2.6,0.4-4.1,0.4c-2.3,0-4.4-0.5-6.3-1.5c-1.9-1-3.6-2.5-5-4.4c-1.4-1.9-2.5-4.2-3.3-7c-0.8-2.8-1.2-5.9-1.2-9.4
			c0-3.2,0.5-6.3,1.3-9c0.9-2.8,2.2-5.2,3.8-7.2c1.6-2,3.6-3.6,5.9-4.8s4.8-1.7,7.6-1.7c2.2,0,4.1,0.3,5.7,1c1.5,0.7,3,1.5,4.2,2.6
			v-22h13v62.7H398.2z M385,193.9c1,0,1.8-0.1,2.6-0.3c0.8-0.2,1.5-0.4,2.1-0.8c0.6-0.3,1.3-0.8,1.8-1.3c0.6-0.5,1.1-1.1,1.7-1.8
			v-18.4c-1-1.1-2.1-1.9-3.2-2.3s-2.3-0.6-3.6-0.6c-1.2,0-2.3,0.2-3.3,0.7s-1.9,1.2-2.6,2.3c-0.7,1.1-1.3,2.4-1.7,4.1
			c-0.4,1.7-0.6,3.7-0.6,6.1c0,2.3,0.2,4.2,0.5,5.8s0.8,2.8,1.4,3.8c0.6,1,1.3,1.6,2.2,2.1C383.1,193.6,384,193.9,385,193.9z"/>
		<path class="st0" d="M429.6,147.8c0,1-0.2,2-0.6,2.9s-1,1.7-1.7,2.4s-1.6,1.2-2.5,1.6c-1,0.4-2,0.6-3.1,0.6c-1.1,0-2-0.2-3-0.6
			c-0.9-0.4-1.7-0.9-2.5-1.6c-0.7-0.7-1.3-1.5-1.7-2.4s-0.6-1.9-0.6-2.9c0-1.1,0.2-2.1,0.6-3c0.4-0.9,1-1.7,1.7-2.4
			c0.7-0.7,1.5-1.2,2.5-1.6s1.9-0.6,3-0.6c1.1,0,2.1,0.2,3.1,0.6s1.8,0.9,2.5,1.6c0.7,0.7,1.3,1.5,1.7,2.4
			C429.4,145.8,429.6,146.8,429.6,147.8z M428.3,159.7v43.4h-13v-43.4H428.3z"/>
		<path class="st0" d="M466.5,203.2c-1.2,0-2.2-0.2-2.8-0.5s-1.1-1-1.6-2.1l-0.9-2.4c-1.1,0.9-2.1,1.7-3.1,2.4c-1,0.7-2,1.3-3.1,1.8
			c-1.1,0.5-2.2,0.9-3.4,1.1c-1.2,0.2-2.6,0.4-4,0.4c-2,0-3.8-0.3-5.4-0.8c-1.6-0.5-3-1.3-4.1-2.3c-1.1-1-2-2.3-2.6-3.8
			c-0.6-1.5-0.9-3.2-0.9-5.2c0-1.5,0.4-3.1,1.2-4.7s2.1-3.1,4.1-4.4c1.9-1.3,4.5-2.4,7.8-3.3c3.3-0.9,7.4-1.4,12.4-1.5V176
			c0-2.5-0.5-4.4-1.6-5.5c-1-1.1-2.5-1.7-4.5-1.7c-1.5,0-2.8,0.2-3.8,0.5c-1,0.3-1.9,0.7-2.6,1.1s-1.5,0.8-2.2,1.1
			c-0.7,0.3-1.6,0.5-2.6,0.5c-0.9,0-1.6-0.2-2.3-0.7c-0.6-0.4-1.1-1-1.5-1.6l-2.4-4.1c2.6-2.3,5.5-4,8.7-5.2s6.6-1.7,10.3-1.7
			c2.6,0,5,0.4,7.1,1.3c2.1,0.9,3.9,2,5.4,3.6c1.5,1.5,2.6,3.3,3.4,5.4c0.8,2.1,1.2,4.4,1.2,6.9v27.1L466.5,203.2L466.5,203.2z
			 M451.6,195.2c1.7,0,3.1-0.3,4.4-0.9c1.3-0.6,2.5-1.5,3.8-2.9v-6c-2.6,0.1-4.7,0.3-6.4,0.7c-1.7,0.3-3,0.8-4,1.3
			c-1,0.5-1.6,1.1-2,1.7s-0.6,1.3-0.6,2.1c0,1.5,0.4,2.5,1.2,3.1C448.8,194.9,450,195.2,451.6,195.2z"/>
		<path class="st0" d="M480.8,203.2v-43.4h8c1.6,0,2.7,0.7,3.2,2.2l0.8,2.5c0.8-0.8,1.7-1.5,2.6-2.2c0.9-0.7,1.9-1.2,2.9-1.7
			s2.1-0.8,3.3-1.1c1.2-0.3,2.5-0.4,3.9-0.4c2.4,0,4.5,0.4,6.3,1.2c1.8,0.8,3.4,2,4.6,3.4c1.3,1.5,2.2,3.2,2.8,5.2
			c0.6,2,1,4.2,1,6.6v27.6h-13v-27.6c0-2.1-0.5-3.8-1.5-5c-1-1.2-2.4-1.8-4.3-1.8c-1.4,0-2.8,0.3-4,0.9c-1.3,0.6-2.5,1.4-3.6,2.5v31
			H480.8z"/>
		<path class="st0" d="M556.1,169.2c-0.3,0.5-0.7,0.9-1.1,1.1s-0.9,0.3-1.5,0.3c-0.6,0-1.2-0.1-1.8-0.4c-0.6-0.3-1.3-0.6-2-0.9
			c-0.7-0.3-1.5-0.6-2.4-0.9c-0.9-0.3-1.9-0.4-3.1-0.4c-1.7,0-2.9,0.3-3.8,0.9s-1.3,1.5-1.3,2.6c0,0.8,0.3,1.5,0.9,2s1.3,1,2.3,1.4
			s2,0.8,3.2,1.1c1.2,0.4,2.4,0.8,3.7,1.2c1.3,0.4,2.5,1,3.7,1.6s2.3,1.3,3.2,2.2c1,0.9,1.7,1.9,2.3,3.2c0.6,1.3,0.9,2.8,0.9,4.5
			c0,2.1-0.4,4.1-1.2,5.9s-2,3.4-3.5,4.7s-3.5,2.3-5.7,3.1c-2.3,0.7-4.9,1.1-7.8,1.1c-1.5,0-3-0.1-4.4-0.4s-2.9-0.7-4.3-1.1
			s-2.7-1-3.8-1.7c-1.2-0.7-2.2-1.4-3-2.1l3-4.8c0.3-0.6,0.8-1,1.3-1.3s1.2-0.5,2-0.5c0.8,0,1.4,0.2,2,0.5c0.6,0.3,1.3,0.7,2,1.1
			s1.5,0.8,2.5,1.1c0.9,0.3,2.1,0.5,3.5,0.5c1,0,1.9-0.1,2.6-0.3c0.7-0.2,1.3-0.5,1.7-0.9s0.7-0.8,0.9-1.2c0.2-0.4,0.3-0.9,0.3-1.4
			c0-0.9-0.3-1.6-0.9-2.1s-1.4-1-2.3-1.4c-1-0.4-2-0.8-3.3-1.1c-1.2-0.4-2.5-0.8-3.7-1.2c-1.3-0.4-2.5-1-3.7-1.6
			c-1.2-0.6-2.3-1.4-3.3-2.4s-1.7-2.1-2.3-3.5c-0.6-1.4-0.9-3.1-0.9-5.1c0-1.8,0.4-3.6,1.1-5.3c0.7-1.7,1.8-3.1,3.2-4.4
			c1.4-1.3,3.2-2.3,5.4-3c2.2-0.7,4.7-1.1,7.5-1.1c1.6,0,3.1,0.1,4.5,0.4c1.5,0.3,2.8,0.7,4.1,1.2c1.3,0.5,2.5,1.1,3.5,1.8
			s2,1.4,2.8,2.2L556.1,169.2z"/>
	</g>
	<g>
		<path class="st0" d="M143.8,27H62.3v-0.2c0-3.5-2.8-6.3-6.3-6.3H36.5c-3.5,0-6.3,2.8-6.3,6.3V27h-10c-5.3,0-9.6,4.3-9.6,9.6v162.6
			c0,5.3,4.3,9.6,9.6,9.6h123.6c5.3,0,9.6-4.3,9.6-9.6V36.5C153.4,31.3,149.1,27,143.8,27z M36.3,26.8c0-0.1,0.1-0.2,0.2-0.2H56
			c0.1,0,0.2,0.1,0.2,0.2v37.3l-8.6-4.3c-0.4-0.2-0.9-0.3-1.4-0.3c-0.5,0-0.9,0.1-1.4,0.3l-8.6,4.3L36.3,26.8L36.3,26.8z
			 M147.3,199.1c0,1.9-1.6,3.5-3.5,3.5H20.3c-1.9,0-3.5-1.6-3.5-3.5V36.5c0-1.9,1.5-3.5,3.5-3.5h10v36c0,1.1,0.5,2,1.5,2.6
			c0.9,0.6,2,0.6,3,0.1l11.6-5.8l11.6,5.8c0.4,0.2,0.9,0.3,1.4,0.3c0.6,0,1.1-0.2,1.6-0.5c0.9-0.6,1.5-1.5,1.5-2.6v-36h81.5
			c1.9,0,3.5,1.5,3.5,3.5L147.3,199.1L147.3,199.1z"/>
		<path class="st0" d="M127.3,137.1C127.3,137.1,127.3,137,127.3,137.1c0-0.1,0-0.2,0-0.3c0,0,0-0.1,0-0.1c0,0,0-0.1,0-0.1
			c0-0.1,0-0.1-0.1-0.2c0,0,0-0.1,0-0.1c0-0.1-0.1-0.1-0.1-0.2c0,0,0,0,0,0l-12.8-28.7v-2.8h3.5c1.7,0,3.1-1.4,3.1-3.1
			s-1.4-3.1-3.1-3.1H85.1v-4.2c3.8-1.3,6.5-4.8,6.5-9.1c0-5.3-4.3-9.6-9.6-9.6c-5.3,0-9.6,4.3-9.6,9.6c0,4.2,2.7,7.8,6.5,9.1v4.2
			H46.3c-1.7,0-3,1.4-3,3.1s1.4,3.1,3,3.1h3.5v2.8L37,136.1c0,0,0,0,0,0c0,0.1-0.1,0.1-0.1,0.2c0,0,0,0.1,0,0.1c0,0.1,0,0.1,0,0.2
			c0,0,0,0.1,0,0.1s0,0.1,0,0.1c0,0.1,0,0.1,0,0.2c0,0,0,0.1,0,0.1c0,0.1,0,0.1,0,0.2c0,0,0,0,0,0c0,7.1,7.2,12.8,16.1,12.8
			s16.1-5.7,16.1-12.8c0,0,0,0,0,0c0-0.1,0-0.1,0-0.2c0,0,0-0.1,0-0.1c0-0.1,0-0.1,0-0.2c0,0,0-0.1,0-0.1c0,0,0-0.1,0-0.1
			c0-0.1,0-0.1-0.1-0.2c0,0,0-0.1,0-0.1c0-0.1-0.1-0.1-0.1-0.2c0,0,0,0,0,0l-12.8-28.7v-2.8H79v26.9c-3.8,1.3-6.5,4.9-6.5,9.1v23
			h-6.7c-1.7,0-3,1.4-3,3.1c0,1.7,1.4,3.1,3,3.1h32.5c1.7,0,3.1-1.4,3.1-3.1c0-1.7-1.4-3.1-3.1-3.1h-6.7v-23c0-4.2-2.7-7.8-6.5-9.1
			v-26.9h23.2v2.8l-12.7,28.7c0,0,0,0,0,0c0,0.1-0.1,0.1-0.1,0.2c0,0,0,0.1,0,0.1c0,0.1,0,0.1-0.1,0.2c0,0,0,0.1,0,0.1s0,0.1,0,0.1
			c0,0.1,0,0.1,0,0.2c0,0,0,0.1,0,0.1c0,0.1,0,0.1,0,0.2c0,0,0,0,0,0c0,7.1,7.2,12.8,16.1,12.8s16.1-5.7,16.1-12.8c0,0,0,0,0,0
			C127.4,137.2,127.3,137.2,127.3,137.1z M82,81.9c1.9,0,3.5,1.6,3.5,3.5c0,1.9-1.6,3.5-3.5,3.5c-1.9,0-3.5-1.6-3.5-3.5
			C78.6,83.4,80.1,81.9,82,81.9z M52.8,115.6l8.3,18.7H44.5L52.8,115.6z M52.8,144c-3.8,0-7.2-1.5-8.8-3.7h17.7
			C59.9,142.5,56.5,144,52.8,144z M85.5,163.6h-6.9v-23c0-1.9,1.6-3.5,3.5-3.5c1.9,0,3.5,1.6,3.5,3.5L85.5,163.6L85.5,163.6z
			 M111.3,115.6l8.3,18.7H103L111.3,115.6z M111.3,144c-3.8,0-7.2-1.5-8.8-3.7h17.7C118.4,142.5,115.1,144,111.3,144z"/>
	</g>
</g>
</svg>
